<svg xmlns="http://www.w3.org/2000/svg" height="24" viewBox="0 96 960 960" width="24"><path d="M184.615 936Q157 936 138.5 917.5 120 899 120 871.385V409.692q0-9.231 7.307-19.615 7.308-10.385 15.77-14.231L596 191.384l13.693 35.231L241.231 376h534.154Q803 376 821.5 394.5 840 413 840 440.615v430.77Q840 899 821.5 917.5 803 936 775.385 936h-590.77Zm129.231-104.615q35.077 0 59.846-24.77 24.77-24.769 24.77-59.846t-24.77-59.846q-24.769-24.769-59.846-24.769T254 686.923q-24.769 24.769-24.769 59.846T254 806.615q24.769 24.77 59.846 24.77ZM160 557.538h500v-73.846h40v73.846h100V440.615q0-9.23-7.692-16.923Q784.615 416 775.385 416h-590.77q-9.23 0-16.923 7.692Q160 431.385 160 440.615v116.923Z"/></svg>