<svg xmlns="http://www.w3.org/2000/svg" height="24" viewBox="0 96 960 960" width="24"><path d="M184.615 936Q157 936 138.5 917.5 120 899 120 871.385v-430.77q0-27.307 17.346-48.461T180 360.461l416-169.077 13.693 35.231L241.231 376h534.154Q803 376 821.5 394.5 840 413 840 440.615v430.77Q840 899 821.5 917.5 803 936 775.385 936h-590.77Zm0-40h590.77q9.23 0 16.923-7.692Q800 880.615 800 871.385V597.539H160v273.846q0 9.23 7.692 16.923Q175.385 896 184.615 896Zm129.231-64.615q35.077 0 59.846-24.77 24.77-24.769 24.77-59.846t-24.77-59.846q-24.769-24.769-59.846-24.769T254 686.923q-24.769 24.769-24.769 59.846T254 806.615q24.769 24.77 59.846 24.77ZM160 557.538h500v-73.846h40v73.846h100V440.615q0-9.23-7.692-16.923Q784.615 416 775.385 416h-590.77q-9.23 0-16.923 7.692Q160 431.385 160 440.615v116.923ZM160 896V597.539 896Z"/></svg>