<svg xmlns="http://www.w3.org/2000/svg" height="24" viewBox="0 96 960 960" width="24"><path d="M264.615 936q-26.846 0-45.731-18.884Q200 898.231 200 871.385v-350.77q0-26.846 18.884-45.731Q237.769 456 264.615 456H320v-80q0-66.846 46.577-113.423T480 216q66.846 0 113.423 46.577T640 376v80h55.385q26.846 0 45.731 18.884Q760 493.769 760 520.615v350.77q0 26.846-18.884 45.731Q722.231 936 695.385 936h-430.77Zm0-40h430.77q10.769 0 17.692-6.923T720 871.385v-350.77q0-10.769-6.923-17.692T695.385 496h-430.77q-10.769 0-17.692 6.923T240 520.615v350.77q0 10.769 6.923 17.692T264.615 896ZM480 756q25.308 0 42.654-17.346Q540 721.308 540 696q0-25.308-17.346-42.654Q505.308 636 480 636q-25.308 0-42.654 17.346Q420 670.692 420 696q0 25.308 17.346 42.654Q454.692 756 480 756ZM360 456h240v-80q0-50-35-85t-85-35q-50 0-85 35t-35 85v80ZM240 896V496v400Z"/></svg>