<svg xmlns="http://www.w3.org/2000/svg" height="24" viewBox="0 96 960 960" width="24"><path d="M304.615 976Q277 976 258.5 957.5 240 939 240 911.385v-670.77Q240 213 258.5 194.5 277 176 304.615 176h350.77Q683 176 701.5 194.5 720 213 720 240.615v670.77Q720 939 701.5 957.5 683 976 655.385 976h-350.77ZM280 876v35.385q0 9.23 7.692 16.923Q295.385 936 304.615 936h350.77q9.23 0 16.923-7.692Q680 920.615 680 911.385V876H280Zm0-40h400V316H280v520Zm0-560h400v-35.385q0-9.23-7.692-16.923Q664.615 216 655.385 216h-350.77q-9.23 0-16.923 7.692Q280 231.385 280 240.615V276Zm0 0V216v60Zm0 600V936v-60Z"/></svg>