<svg xmlns="http://www.w3.org/2000/svg" height="34" viewBox="0 96 960 960" width="34"><path d="M473.025 935.846q-72.897-1.641-137.461-30.295Q271 876.898 223.359 828.359q-47.641-48.538-75.5-113.512T120 576q0-74.539 28.423-140.231t77.038-114.308q48.616-48.615 114.308-77.038Q405.461 216 480 216q140.821 0 242.577 92.91t115.628 230.244h-34.153q-9.718-90.077-63.372-161.962-53.654-71.885-138.577-105.859v18.359q0 33.821-23.577 57.962-23.577 24.141-57.398 24.141h-82.102v82.102q0 16.717-12.065 28.282-12.064 11.565-29.064 11.565h-80.974V576H400v121.282h-42.103L162 501.897q-3.308 18.308-5.731 36.906-2.423 18.599-2.423 37.197 0 132.128 91.846 227.513Q337.538 898.898 473.025 902v33.846Zm369.847-12.718-139.949-138.41Q685 798.462 663.744 805.692q-21.257 7.231-43.454 7.231-57.215 0-97.214-39.937-39.999-39.938-39.999-97.064 0-57.127 39.937-96.986 39.938-39.859 97.064-39.859 57.127 0 96.986 39.999t39.859 97.214q0 22.966-7.692 44.607-7.692 21.642-22.051 39.718l139.948 138.257-24.256 24.256ZM619.906 779.077q43.222 0 73.197-29.88 29.974-29.881 29.974-73.103 0-43.222-29.88-73.197-29.881-29.974-73.103-29.974-43.222 0-73.197 29.88-29.974 29.881-29.974 73.103 0 43.222 29.88 73.197 29.881 29.974 73.103 29.974Z"/></svg>