<svg xmlns="http://www.w3.org/2000/svg" height="34" viewBox="0 96 960 960" width="34"><path d="M603.898 892.923 356.769 806l-156.205 61.077q-14.41 6.359-27.487-2.038Q160 856.641 160 840.411V352q0-10.693 5.192-19.539 5.192-8.846 14.962-12.307l176.615-61.077 247.129 86.256 155.538-60.564q14.41-6.205 27.487.961Q800 292.897 800 308.359v496.667q0 10.641-6.346 18.538-6.346 7.898-16.218 11.205l-173.538 58.154Zm-18.565-41.641V371.949l-210.666-72.924v479.334l210.666 72.923Zm33.847 0 146.974-48.256V317.025L619.18 371.949v479.333Zm-425.334-16.974 146.974-55.949V299.025L193.846 348.82v485.488ZM619.18 371.949v479.333-479.333Zm-278.36-72.924v479.334-479.334Z"/></svg>